<svg xmlns="http://www.w3.org/2000/svg" xmlns:xlink="http://www.w3.org/1999/xlink" width="500" zoomAndPan="magnify" viewBox="0 0 375 374.999991" height="500" preserveAspectRatio="xMidYMid meet" version="1.0"><defs><clipPath id="0178755e5b"><path d="M 11.964844 58.46875 L 363.023438 58.46875 L 363.023438 316.46875 L 11.964844 316.46875 Z M 11.964844 58.46875 " clip-rule="nonzero"/></clipPath><clipPath id="baa2dbcb37"><path d="M 141.210938 153.6875 L 153.984375 153.6875 L 153.984375 166.457031 L 141.210938 166.457031 Z M 141.210938 153.6875 " clip-rule="nonzero"/></clipPath><clipPath id="73acadfc50"><path d="M 147.597656 153.6875 C 144.070312 153.6875 141.210938 156.546875 141.210938 160.074219 C 141.210938 163.601562 144.070312 166.457031 147.597656 166.457031 C 151.125 166.457031 153.984375 163.601562 153.984375 160.074219 C 153.984375 156.546875 151.125 153.6875 147.597656 153.6875 Z M 147.597656 153.6875 " clip-rule="nonzero"/></clipPath></defs><g clip-path="url(#0178755e5b)"><path fill="#ff5caa" d="M 171.871094 290.21875 C 187.457031 268.429688 203.042969 246.636719 218.628906 224.847656 C 222.4375 219.527344 213.652344 214.484375 209.894531 219.742188 C 193.648438 242.445312 177.410156 265.152344 161.171875 287.855469 C 140.46875 283.292969 119.765625 278.730469 99.066406 274.167969 C 97.003906 273.710938 94.941406 273.253906 92.871094 272.800781 C 120.398438 249.84375 147.921875 226.886719 175.449219 203.933594 C 175.457031 203.925781 175.46875 203.917969 175.480469 203.910156 C 175.480469 203.910156 175.480469 203.90625 175.484375 203.90625 C 177.855469 201.929688 180.226562 199.953125 182.597656 197.972656 C 223.230469 164.082031 263.867188 130.191406 304.503906 96.304688 C 292.445312 136.351562 280.386719 176.394531 268.332031 216.441406 C 259.386719 246.152344 250.441406 275.859375 241.492188 305.570312 C 218.285156 300.449219 195.082031 295.335938 171.871094 290.21875 Z M 114.039062 207.179688 C 118.0625 215.148438 122.085938 223.117188 126.105469 231.085938 C 112.558594 241.804688 99.011719 252.515625 85.464844 263.234375 C 82.765625 220.324219 80.0625 177.414062 77.355469 134.511719 C 88.21875 156.027344 99.078125 177.546875 109.941406 199.066406 C 110.738281 201.800781 112.472656 204.679688 114.039062 207.179688 Z M 362.925781 253.09375 C 363.042969 251.046875 361.964844 249.121094 359.265625 248.753906 C 330.414062 244.835938 301.5625 240.917969 272.707031 237.003906 C 278.753906 216.914062 284.804688 196.824219 290.851562 176.730469 C 300.261719 145.488281 309.667969 114.242188 319.074219 83.003906 C 320.648438 77.789062 314.269531 75.03125 310.617188 78.082031 C 278.195312 105.121094 245.765625 132.164062 213.34375 159.207031 C 201.015625 169.488281 188.683594 179.769531 176.355469 190.050781 C 174.816406 164.03125 173.273438 138.003906 171.738281 111.976562 C 170.78125 95.773438 169.820312 79.578125 168.863281 63.378906 C 168.515625 57.519531 160.910156 56.691406 158.925781 62.035156 C 143.832031 102.683594 128.738281 143.335938 113.652344 183.988281 C 100.828125 158.582031 88.003906 133.179688 75.179688 107.773438 C 75.164062 107.746094 75.152344 107.722656 75.136719 107.695312 C 74.019531 105.480469 71.59375 104.875 69.480469 105.4375 C 68.539062 105.257812 67.539062 105.351562 66.578125 105.828125 C 65.644531 106.167969 64.835938 106.777344 64.324219 107.648438 C 47.375 123.9375 30.433594 140.222656 13.492188 156.507812 C 10.066406 159.796875 12.90625 164.78125 17.066406 165.144531 C 34.527344 166.6875 51.992188 168.222656 69.457031 169.765625 C 71.355469 199.886719 73.253906 230.011719 75.152344 260.128906 C 75.390625 263.992188 75.636719 267.855469 75.878906 271.714844 C 75.453125 273.035156 75.828125 274.417969 76.675781 275.546875 C 76.777344 277.71875 78.214844 279.917969 80.398438 280.402344 C 129.488281 291.222656 178.578125 302.046875 227.664062 312.871094 C 232.992188 314.046875 238.316406 315.21875 243.644531 316.394531 C 244.304688 316.539062 244.925781 316.558594 245.503906 316.484375 C 246.417969 316.539062 247.363281 316.375 248.25 315.917969 C 285.65625 296.613281 323.066406 277.304688 360.472656 258 C 362.664062 256.867188 363.296875 254.917969 362.925781 253.09375 " fill-opacity="1" fill-rule="nonzero"/></g><g clip-path="url(#baa2dbcb37)"><g clip-path="url(#73acadfc50)"><path fill="#ff5caa" d="M 141.210938 153.6875 L 153.984375 153.6875 L 153.984375 166.457031 L 141.210938 166.457031 Z M 141.210938 153.6875 " fill-opacity="1" fill-rule="nonzero"/></g></g></svg>